# xmcd CD database file generated by Grip 3.2.0
# 
# Track frame offsets:
#       150
#       23477
#       44832
# 
# Disc length: 950 seconds
# 
# Revision: 4
# Processed by: cddbd v1.5.1PL0 Copyright (c) Steve Scherf et al.
# Submitted via: Grip 3.2.0
# 
DISCID=1e03b403
DTITLE=Various Artist - The Crow: Gold Dust Woman (single)
DYEAR=1996
DGENRE=Soundtrack
TTITLE0=Hole - Gold Dust Woman
TTITLE1=Iggy Pop - I Wanna Be Your Dog
TTITLE2=NY Loose - Spit
EXTD=ID3G: 24
EXTT0=
EXTT1=
EXTT2=
PLAYORDER=
